<?xml version="1.0" standalone="no"?>
<!DOCTYPE svg PUBLIC "-//W3C//DTD SVG 20010904//EN"
 "http://www.w3.org/TR/2001/REC-SVG-20010904/DTD/svg10.dtd">
<svg version="1.0" xmlns="http://www.w3.org/2000/svg"
 width="500.000000pt" height="500.000000pt" viewBox="0 0 500.000000 500.000000"
 preserveAspectRatio="xMidYMid meet">

<g transform="translate(0.000000,500.000000) scale(0.100000,-0.100000)"
fill="#000000" stroke="none">
<path d="M2395 4194 c-518 -79 -945 -361 -1224 -808 -113 -181 -194 -409 -232
-651 -17 -114 -15 -379 5 -499 90 -544 415 -995 901 -1252 656 -348 1473 -220
2001 312 238 240 392 527 466 864 20 93 23 132 22 340 0 206 -3 248 -22 339
-79 360 -263 685 -522 919 -188 170 -373 282 -595 359 -246 85 -556 115 -800
77z m-1081 -1468 c65 -27 76 -147 17 -197 l-31 -25 22 -22 c12 -12 18 -25 14
-29 -4 -4 -18 4 -32 20 -13 15 -36 30 -51 33 -56 11 -83 48 -83 113 0 58 16
90 52 106 42 18 51 18 92 1z m1134 8 c36 -10 26 -27 -13 -20 -38 8 -88 -13
-99 -39 -3 -9 -6 -34 -6 -55 0 -21 3 -46 6 -55 10 -25 62 -47 95 -40 18 4 29
3 29 -4 0 -6 -20 -11 -49 -11 -79 0 -109 40 -102 135 5 66 70 107 139 89z
m-948 -87 c0 -100 11 -121 65 -121 54 0 65 21 65 121 0 49 4 83 10 83 6 0 10
-36 10 -88 0 -75 -3 -92 -20 -110 -33 -35 -94 -33 -127 4 -20 22 -23 36 -23
110 0 49 4 84 10 84 6 0 10 -34 10 -83z m290 -27 c0 -67 -4 -110 -10 -110 -6
0 -10 43 -10 110 0 67 4 110 10 110 6 0 10 -43 10 -110z m264 98 c-4 -7 -31
-50 -61 -95 -29 -44 -53 -84 -53 -87 0 -3 27 -6 60 -6 33 0 60 -4 60 -10 0 -6
-33 -10 -80 -10 -94 0 -93 -9 -8 117 26 40 48 75 48 78 0 3 -25 5 -55 5 -30 0
-55 5 -55 10 0 6 32 10 76 10 57 0 73 -3 68 -12z m546 -33 l0 -45 60 0 60 0 0
45 c0 25 5 45 10 45 6 0 10 -43 10 -110 0 -67 -4 -110 -10 -110 -5 0 -10 25
-10 55 l0 55 -60 0 -60 0 0 -55 c0 -30 -4 -55 -10 -55 -6 0 -10 43 -10 110 0
67 4 110 10 110 6 0 10 -20 10 -45z m379 -57 c43 -109 46 -118 33 -118 -5 0
-16 18 -25 40 -13 34 -20 40 -45 40 -46 0 -60 -9 -72 -46 -6 -19 -16 -34 -22
-34 -11 0 -12 -2 39 128 20 50 40 92 44 92 4 0 25 -46 48 -102z m254 90 c9 -7
19 -25 22 -40 10 -38 -31 -78 -80 -78 -35 0 -35 0 -35 -45 0 -25 -4 -45 -10
-45 -6 0 -10 43 -10 110 l0 110 48 0 c27 0 56 -6 65 -12z m252 -2 c11 -8 18
-26 18 -46 0 -41 -32 -70 -79 -70 -34 0 -34 -1 -34 -45 0 -25 -4 -45 -10 -45
-6 0 -10 43 -10 110 l0 110 48 0 c27 0 57 -6 67 -14z"/>
<path d="M1234 2708 c-64 -30 -56 -159 10 -176 39 -11 60 -5 83 20 26 29 25
111 -3 138 -24 25 -61 32 -90 18z"/>
<path d="M2916 2658 c-22 -52 -20 -58 14 -58 34 0 37 11 16 61 l-15 34 -15
-37z"/>
<path d="M3140 2665 c0 -44 1 -45 33 -45 39 0 57 11 61 36 6 36 -12 54 -54 54
l-40 0 0 -45z"/>
<path d="M3396 2713 c-3 -3 -6 -26 -6 -50 0 -41 1 -43 29 -43 49 0 61 9 61 46
0 19 -6 36 -12 38 -35 11 -66 15 -72 9z"/>
</g>
</svg>
